<svg width="14" height="8" viewBox="0 0 14 8" fill="none" xmlns="http://www.w3.org/2000/svg">
<path d="M1.26367 3.44357C0.984412 3.44357 0.758028 3.66996 0.758028 3.94922C0.758028 4.22848 0.984412 4.45486 1.26367 4.45486L1.26367 3.44357ZM13.621 4.30676C13.8185 4.1093 13.8185 3.78914 13.621 3.59168L10.4031 0.373776C10.2056 0.17631 9.88548 0.17631 9.68802 0.373776C9.49055 0.571243 9.49055 0.891399 9.68802 1.08886L12.5484 3.94922L9.68802 6.80957C9.49055 7.00704 9.49055 7.3272 9.68802 7.52466C9.88548 7.72213 10.2056 7.72213 10.4031 7.52466L13.621 4.30676ZM1.26367 4.45486L13.2635 4.45486L13.2635 3.44358L1.26367 3.44357L1.26367 4.45486Z" fill="black"/>
</svg>
