<svg width="47" height="46" viewBox="0 0 47 46" fill="none" xmlns="http://www.w3.org/2000/svg">
<g clip-path="url(#clip0_131_102)">
<g clip-path="url(#clip1_131_102)">
<path d="M31.5147 5.48828C28.3827 5.48828 25.4545 6.66784 23.1821 8.82724C20.9097 6.66784 17.9814 5.48828 14.8495 5.48828C8.08087 5.48828 2.57422 11.1272 2.57422 18.0584C2.57422 22.0767 5.99891 27.0844 12.7533 32.9423C17.6916 37.2252 22.6994 40.4306 22.7494 40.4625C22.8813 40.5466 23.0317 40.5886 23.1821 40.5886C23.3325 40.5886 23.4828 40.5465 23.6149 40.4624C23.6649 40.4305 28.6726 37.2251 33.611 32.9422C40.3653 27.0844 43.79 22.0767 43.79 18.0584C43.79 11.1272 38.2833 5.48828 31.5147 5.48828ZM32.5699 31.714C28.5542 35.1983 24.4895 37.9581 23.1821 38.8222C21.8767 37.9596 17.8226 35.2075 13.8081 31.7259C7.51206 26.2656 4.18421 21.5394 4.18421 18.0584C4.18421 12.0149 8.9687 7.09827 14.8495 7.09827C17.8059 7.09827 20.5551 8.31333 22.5904 10.5196C22.7428 10.6848 22.9573 10.7787 23.1821 10.7787C23.4068 10.7787 23.6214 10.6848 23.7738 10.5196C25.8092 8.31341 28.5583 7.09835 31.5147 7.09835C37.3955 7.09827 42.18 12.0149 42.18 18.0584C42.18 21.5367 38.8569 26.2587 32.5699 31.714Z" fill="#1A1A1A"/>
<path d="M30.5384 9.94093L30.5081 9.94616C30.0703 10.0239 29.7785 10.4418 29.8563 10.8796C29.9256 11.2697 30.2651 11.5438 30.6479 11.5438C30.6947 11.5438 30.7421 11.5397 30.7896 11.5313L30.8056 11.5285C31.244 11.4547 31.5396 11.0395 31.4658 10.6011C31.392 10.1625 30.9764 9.86736 30.5384 9.94093Z" fill="#1A1A1A"/>
<path d="M37.92 13.0064C36.9316 11.6486 35.5277 10.6373 33.967 10.1587C33.5418 10.0282 33.0917 10.2673 32.9614 10.6923C32.831 11.1174 33.07 11.5676 33.495 11.6979C36.0677 12.4868 37.8644 15.0047 37.8644 17.821C37.8644 18.2655 38.2248 18.6259 38.6694 18.6259C39.114 18.6259 39.4744 18.2655 39.4743 17.8209C39.4743 16.0681 38.9368 14.4033 37.92 13.0064Z" fill="#1A1A1A"/>
</g>
</g>
<defs>
<clipPath id="clip0_131_102">
<rect width="42" height="41" fill="white" transform="translate(2 3)"/>
</clipPath>
<clipPath id="clip1_131_102">
<rect width="41.2158" height="41.2158" fill="white" transform="translate(2.57812 2.42969)"/>
</clipPath>
</defs>
</svg>
