<svg width="47" height="47" viewBox="0 0 47 47" fill="none" xmlns="http://www.w3.org/2000/svg">
<path d="M22.7376 42.2761C18.9524 42.2765 15.252 41.1544 12.1045 39.0517C8.95706 36.949 6.5038 33.9602 5.055 30.4632C3.6062 26.9662 3.22693 23.1181 3.96517 19.4056C4.70341 15.693 6.52598 12.2828 9.20241 9.60607C11.8788 6.92938 15.2889 5.10647 19.0014 4.36788C22.7139 3.62928 26.562 4.00817 30.0591 5.45663C33.5562 6.90509 36.5453 9.35806 38.6483 12.5053C40.7513 15.6526 41.8738 19.3528 41.8738 23.1381C41.8685 28.2118 39.8507 33.0763 36.2632 36.6642C32.6757 40.2521 27.8114 42.2704 22.7376 42.2761ZM22.7376 5.24647C19.198 5.2461 15.7378 6.29542 12.7946 8.26173C9.85138 10.228 7.5574 13.023 6.20277 16.2931C4.84814 19.5632 4.49371 23.1616 5.18429 26.6332C5.87488 30.1048 7.57947 33.2936 10.0825 35.7964C12.5855 38.2991 15.7745 40.0033 19.2461 40.6936C22.7178 41.3838 26.3161 41.029 29.5861 39.674C32.8561 38.319 35.6508 36.0248 37.6168 33.0814C39.5828 30.138 40.6318 26.6777 40.631 23.1381C40.6261 18.3938 38.7394 13.8452 35.3848 10.4903C32.0303 7.13536 27.4819 5.24817 22.7376 5.24274V5.24647Z" fill="#1A1A1A"/>
<path d="M8.24704 34.5352C7.07915 34.5599 5.91451 34.4031 4.79473 34.0704C4.20716 33.9166 3.65721 33.6443 3.17863 33.2704C2.70005 32.8964 2.30293 32.4286 2.01164 31.8956C1.0827 30.0259 2.23968 26.8868 3.79806 24.6051C3.89257 24.4729 4.03511 24.383 4.19512 24.3547C4.35513 24.3263 4.51989 24.3618 4.65406 24.4535C4.78824 24.5451 4.88117 24.6857 4.91292 24.8451C4.94468 25.0045 4.91273 25.1699 4.82394 25.306C3.27052 27.5765 2.54291 30.1713 3.1245 31.3426C3.34484 31.7258 3.6405 32.0605 3.99366 32.3264C4.34681 32.5923 4.75015 32.784 5.17936 32.8898C9.44068 34.2773 18.133 32.1678 26.8085 27.6442C38.945 21.315 45.3252 13.4988 43.6729 10.1696C43.0168 8.85041 40.9389 8.14019 37.9607 8.21102C37.8791 8.21302 37.7979 8.19893 37.7218 8.16955C37.6456 8.14017 37.576 8.09608 37.5169 8.03979C37.3975 7.92612 37.3282 7.76968 37.3241 7.60488C37.3201 7.44008 37.3817 7.28043 37.4954 7.16105C37.6091 7.04167 37.7655 6.97233 37.9303 6.96829C41.459 6.88254 43.8954 7.82018 44.7858 9.61593C47.0109 14.0935 39.3669 22.4956 27.3826 28.7453C20.3251 32.4256 13.185 34.5352 8.24704 34.5352Z" fill="#1A1A1A"/>
<path d="M39.8647 10.5656C39.7725 10.5656 39.6814 10.5451 39.5981 10.5055C39.5148 10.466 39.4414 10.4084 39.3831 10.3369L37.4606 7.98259C37.4073 7.91738 37.3678 7.84201 37.3445 7.76106C37.3212 7.68011 37.3147 7.59528 37.3252 7.51171C37.3357 7.42813 37.3631 7.34757 37.4057 7.27492C37.4483 7.20227 37.5053 7.13903 37.5731 7.08907L40.0759 5.24424C40.1417 5.19581 40.2163 5.1608 40.2956 5.14121C40.3748 5.12162 40.4572 5.11783 40.5379 5.13006C40.6186 5.1423 40.6961 5.17031 40.766 5.2125C40.8359 5.25469 40.8968 5.31024 40.9452 5.37597C40.9937 5.44169 41.0287 5.51632 41.0483 5.59557C41.0678 5.67483 41.0716 5.75717 41.0594 5.83789C41.0472 5.91861 41.0192 5.99613 40.977 6.06603C40.9348 6.13593 40.8792 6.19683 40.8135 6.24526L38.8382 7.70236L40.3475 9.55092C40.4219 9.64196 40.469 9.75226 40.4832 9.86899C40.4975 9.98573 40.4783 10.1041 40.4279 10.2104C40.3776 10.3166 40.2981 10.4064 40.1987 10.4693C40.0993 10.5322 39.9841 10.5656 39.8665 10.5656H39.8647Z" fill="#1A1A1A"/>
<path d="M22.0452 35.7533C21.6271 35.7551 21.2128 35.6734 20.8267 35.5128C19.4299 34.92 18.6116 33.5772 18.0542 32.4743L18.0169 32.401C17.6832 31.7374 17.3378 31.0508 16.7879 30.8526C16.5948 30.7931 16.3954 30.7562 16.1938 30.7426C15.9897 30.7239 15.787 30.6926 15.5868 30.6487C14.5037 30.4002 13.5735 29.5539 12.7508 28.057L12.5203 27.6221C12.1702 26.7985 11.6378 26.0651 10.9632 25.4771C10.7524 25.3304 10.5135 25.2289 10.2616 25.1788C10.0097 25.1288 9.75012 25.1313 9.49924 25.1863C9.36888 25.2106 9.24567 25.2639 9.13875 25.3424C9.03182 25.4208 8.94393 25.5223 8.8816 25.6393C8.63306 26.1407 8.90335 26.7807 9.21341 27.5227C9.562 28.3559 9.95905 29.3004 9.62041 30.2716C9.13201 31.6653 7.43755 32.1425 6.01649 31.8915C5.87974 31.8683 5.75359 31.8031 5.65547 31.7051C5.56185 31.6066 5.50307 31.4802 5.48814 31.3451C5.47321 31.2101 5.50295 31.0739 5.57281 30.9574C5.64267 30.8408 5.7488 30.7504 5.87494 30.7C6.00108 30.6495 6.14029 30.6418 6.27125 30.6779C7.14737 30.819 8.19313 30.586 8.44603 29.8658C8.62684 29.3451 8.35469 28.6946 8.06637 28.0055C7.69355 27.1138 7.2704 26.1028 7.76625 25.0937C7.90819 24.815 8.10986 24.5711 8.35689 24.3793C8.60392 24.1874 8.89022 24.0525 9.19539 23.984C9.62135 23.8849 10.0635 23.8771 10.4926 23.9613C10.9218 24.0455 11.3283 24.2197 11.6852 24.4724C12.5228 25.1649 13.1853 26.0451 13.6189 27.0417L13.842 27.4599C14.482 28.625 15.1468 29.2724 15.8695 29.4371C16.0218 29.4695 16.176 29.4927 16.3312 29.5067C16.6325 29.5288 16.9299 29.5883 17.2166 29.6838C18.2276 30.0491 18.7271 31.0427 19.1292 31.8405L19.1652 31.9132C19.6269 32.8266 20.2886 33.932 21.3139 34.3676C21.571 34.47 21.8466 34.5178 22.1232 34.5082C22.3998 34.4986 22.6713 34.4317 22.9207 34.3117C23.073 34.2439 23.2086 34.1437 23.3181 34.018C23.4276 33.8923 23.5083 33.7442 23.5545 33.5841C23.7055 32.9776 23.3197 32.3059 22.9114 31.5957C22.7871 31.377 22.6598 31.1607 22.5485 30.9414C21.8846 29.5784 21.6906 28.034 21.9969 26.5491C22.3032 25.0643 23.0926 23.7227 24.2418 22.7338C24.3499 22.6462 24.4605 22.5611 24.5711 22.4759C24.8793 22.2693 25.1508 22.0126 25.3745 21.7166C25.6097 21.2266 25.7188 20.6856 25.692 20.1427C25.7015 19.7702 25.7364 19.3988 25.7964 19.0311C25.9135 18.4933 26.0874 17.9694 26.3153 17.4683C26.5382 16.9973 26.696 16.4981 26.7844 15.9845C26.8025 15.7477 26.7663 15.5098 26.6785 15.2891C26.5907 15.0683 26.4537 14.8705 26.278 14.7107C26.2178 14.6492 26.1417 14.6056 26.0582 14.585C25.9746 14.5644 25.887 14.5674 25.8051 14.5939C25.5343 14.7441 25.3093 14.9648 25.1539 15.2327C24.8959 15.6307 24.5516 15.9656 24.1467 16.2126C23.8114 16.3744 23.4499 16.4749 23.0792 16.5096C21.5341 16.7217 19.99 16.9371 18.4469 17.1558C16.5418 17.4224 15.3115 17.0272 14.7908 15.9783C14.5711 15.439 14.4976 14.8513 14.5777 14.2745C14.6224 13.6532 14.7398 12.0047 16.0354 11.5163C17.0842 11.1292 18.0548 11.8021 18.7626 12.293L18.8993 12.3874C19.7424 12.9721 21.2791 13.4388 21.9048 12.5875C21.9582 12.5123 22.0073 12.4229 22.0577 12.334C22.1754 12.1023 22.3268 11.8894 22.5069 11.7021C22.979 11.3179 23.5655 11.1019 24.174 11.0882C24.2641 11.0776 24.3536 11.067 24.4418 11.054C24.9673 11.0188 25.4785 10.8674 25.9383 10.6105C26.3981 10.3537 26.7951 9.99794 27.1007 9.56892C27.6897 8.61575 27.722 7.17667 27.1833 5.51576C27.1527 5.43689 27.1386 5.35261 27.1418 5.26809C27.1449 5.18356 27.1653 5.10057 27.2017 5.0242C27.238 4.94783 27.2896 4.87969 27.3532 4.82395C27.4168 4.7682 27.4911 4.72604 27.5716 4.70003C27.6521 4.67402 27.7371 4.66472 27.8213 4.67269C27.9055 4.68066 27.9872 4.70574 28.0613 4.74639C28.1355 4.78704 28.2006 4.84241 28.2526 4.9091C28.3047 4.97579 28.3425 5.0524 28.3639 5.13424C28.8237 6.55841 29.1611 8.59711 28.1551 10.2226C27.7579 10.8086 27.2343 11.2979 26.6228 11.6546C26.0113 12.0113 25.3276 12.2263 24.622 12.2837C24.5195 12.2986 24.4201 12.3104 24.32 12.3222C23.9826 12.3214 23.6519 12.4169 23.3669 12.5975C23.2766 12.7031 23.1998 12.8196 23.1382 12.9442C23.0687 13.0724 22.9924 13.1969 22.9095 13.317C21.8439 14.7673 19.6853 14.446 18.1909 13.4108L18.0523 13.3151C17.4888 12.9243 16.9072 12.521 16.4666 12.6813C16.1012 12.8199 15.8863 13.3692 15.816 14.359C15.7612 14.7177 15.7914 15.0842 15.9043 15.429C16.2212 16.0672 17.3682 16.0504 18.2723 15.9261C19.8133 15.7086 21.3617 15.4912 22.9033 15.2793C23.1291 15.2616 23.3504 15.2068 23.5583 15.1171C23.798 14.9496 24.0019 14.7358 24.1579 14.4883C24.4504 14.0092 24.8866 13.6345 25.4043 13.4177C25.6843 13.3236 25.984 13.3042 26.2737 13.3614C26.5635 13.4186 26.8333 13.5505 27.0565 13.7439C27.3953 14.0357 27.6593 14.4045 27.8263 14.8193C27.9933 15.2341 28.0585 15.6829 28.0166 16.1281C27.9185 16.7567 27.7317 17.3682 27.4617 17.9443C27.2686 18.3658 27.1193 18.8059 27.0162 19.2579C26.9673 19.5705 26.939 19.886 26.9316 20.2023C26.958 20.9629 26.7813 21.7168 26.4196 22.3864C26.1212 22.8069 25.7508 23.1712 25.3254 23.4627C25.2248 23.5403 25.1247 23.6168 25.0278 23.6963C24.0929 24.5005 23.4508 25.5918 23.2017 26.7997C22.9527 28.0075 23.1109 29.2638 23.6515 30.3722C23.7552 30.5754 23.8708 30.7755 23.9864 30.9768C24.476 31.8275 25.0309 32.7918 24.7587 33.8842C24.6706 34.2197 24.5097 34.5316 24.2874 34.7978C24.0651 35.064 23.7869 35.278 23.4725 35.4246C23.0283 35.6423 22.5399 35.7548 22.0452 35.7533Z" fill="#1A1A1A"/>
<path d="M36.9266 35.6476C36.8081 35.6474 36.6921 35.6133 36.5923 35.5494C35.4577 34.8236 34.7046 33.2727 35.408 31.9349C35.6234 31.5562 35.8982 31.2144 36.2219 30.9227C36.3506 30.7947 36.4798 30.6679 36.5948 30.5312C36.7812 30.3088 36.8004 30.1758 36.7948 30.1522C36.7004 30.0979 36.5935 30.069 36.4846 30.0685C36.3756 30.0679 36.2684 30.0957 36.1735 30.1491C35.5312 30.4128 34.8138 30.4281 34.1609 30.1921C33.508 29.9561 32.9662 29.4856 32.641 28.8722C32.4918 28.5344 32.42 28.1674 32.4307 27.7983C32.4415 27.4291 32.5346 27.067 32.7031 26.7384C32.8488 26.425 33.0637 26.1487 33.3316 25.9304C33.5995 25.712 33.9134 25.5572 34.2497 25.4777C34.5629 25.4181 34.8822 25.3972 35.2004 25.4155C35.4675 25.4443 35.7376 25.4166 35.9933 25.3341C36.1589 25.2187 36.2932 25.0637 36.3839 24.8833C36.4746 24.7028 36.5189 24.5027 36.5127 24.3008C36.5536 24.0146 36.5233 23.7228 36.4246 23.4511C36.3259 23.1794 36.1617 22.9362 35.9467 22.7431C35.5882 22.4325 35.1971 22.1617 34.7804 21.9353C34.5492 21.798 34.3137 21.6581 34.0826 21.5053C33.9583 21.4233 33.8521 21.3587 33.757 21.3015C32.9579 20.8181 32.7355 20.4546 32.8995 19.1211C33.0304 18.3112 33.353 17.5443 33.8402 16.8842C33.921 16.7599 34.0037 16.6276 34.0888 16.4934C35.2781 14.5491 35.2998 13.0696 35.3315 11.0253C35.3353 10.7495 35.3396 10.4661 35.3471 10.1741C35.3479 10.0921 35.3652 10.0112 35.3979 9.93609C35.4306 9.86096 35.4781 9.79317 35.5375 9.73673C35.5969 9.68028 35.667 9.63634 35.7437 9.60751C35.8204 9.57867 35.9021 9.56553 35.984 9.56887C36.1487 9.5731 36.3049 9.64257 36.4184 9.762C36.5319 9.88144 36.5933 10.0411 36.5892 10.2058C36.5823 10.4935 36.578 10.7725 36.5743 11.044C36.5426 13.1187 36.5158 14.9107 35.1501 17.1439C35.0643 17.285 34.9773 17.4211 34.8922 17.5553C34.5069 18.0599 34.2481 18.6494 34.1373 19.2746C34.0771 19.5276 34.0695 19.7903 34.1149 20.0463C34.2048 20.1202 34.3015 20.1853 34.4038 20.2408C34.5126 20.3061 34.6344 20.3806 34.7723 20.472C34.9842 20.6118 35.2035 20.7416 35.4191 20.8696C35.9143 21.1399 36.3778 21.4646 36.8011 21.8377C37.1472 22.1565 37.4139 22.5519 37.5798 22.9922C37.7458 23.4325 37.8064 23.9056 37.7567 24.3735C37.761 24.8017 37.6479 25.223 37.4295 25.5914C37.2112 25.9598 36.896 26.2613 36.5183 26.4632C36.0935 26.6324 35.6348 26.6994 35.1793 26.6589C34.9582 26.6447 34.7362 26.6556 34.5175 26.6912C34.364 26.732 34.2216 26.8068 34.101 26.9102C33.9804 27.0136 33.8847 27.1428 33.821 27.2883C33.7358 27.45 33.6873 27.6285 33.6788 27.811C33.6703 27.9936 33.7021 28.1758 33.7719 28.3447C33.959 28.6672 34.256 28.9117 34.6085 29.0335C34.961 29.1552 35.3456 29.146 35.6919 29.0077C36.0397 28.8343 36.435 28.7807 36.8164 28.8552C37.1978 28.9297 37.5439 29.1281 37.8008 29.4196C37.95 29.6222 38.3731 30.3585 37.5492 31.3341C37.4106 31.4987 37.2565 31.6528 37.1018 31.8063C36.872 32.0097 36.6743 32.2466 36.5152 32.5091C36.1579 33.1894 36.6159 34.0886 37.2665 34.5049C37.3796 34.5774 37.4662 34.6846 37.5132 34.8104C37.5603 34.9362 37.5653 35.0739 37.5275 35.2029C37.4897 35.3318 37.4112 35.445 37.3036 35.5255C37.196 35.606 37.0653 35.6495 36.9309 35.6494L36.9266 35.6476Z" fill="#1A1A1A"/>
<path d="M28.7129 41.2839C28.5668 41.2837 28.4254 41.2321 28.3136 41.138C28.2017 41.0439 28.1267 40.9134 28.1015 40.7694C28.0468 40.4529 27.9334 40.1495 27.7672 39.8746C27.3419 39.215 26.7333 38.6937 26.0162 38.3747C25.5859 38.1372 25.0993 38.0209 24.6082 38.0379C23.9131 38.1887 23.267 38.5118 22.7292 38.9774C21.8593 39.5907 20.8794 40.2885 19.6708 40.048C19.3099 39.9632 18.9624 39.8292 18.6381 39.6497L16.2465 38.4691C16.098 38.3827 15.932 38.3305 15.7607 38.3166C15.5894 38.3026 15.4172 38.3271 15.2567 38.3883C15.0368 38.5051 14.8437 38.6664 14.6896 38.862C14.5356 39.0576 14.4239 39.2831 14.3619 39.5242C14.3417 39.6071 14.3047 39.685 14.2532 39.753C14.2016 39.821 14.1366 39.8776 14.0622 39.9194C13.9878 39.9611 13.9055 39.9871 13.8206 39.9957C13.7357 40.0043 13.65 39.9953 13.5687 39.9693C13.4874 39.9433 13.4124 39.9008 13.3483 39.8445C13.2841 39.7882 13.2323 39.7194 13.1959 39.6422C13.1596 39.5649 13.1395 39.4811 13.137 39.3958C13.1345 39.3105 13.1496 39.2256 13.1813 39.1464C13.2953 38.7338 13.4966 38.3504 13.7714 38.0222C14.0462 37.694 14.3883 37.4285 14.7745 37.2438C15.0996 37.1113 15.45 37.0527 15.8005 37.072C16.151 37.0914 16.4928 37.1882 16.8014 37.3556L19.2005 38.5424C19.4261 38.6697 19.6674 38.767 19.9181 38.832C20.5973 38.9687 21.2553 38.502 22.0146 37.9621C22.7252 37.3629 23.5812 36.9619 24.4964 36.7995C25.2145 36.7579 25.9301 36.9162 26.5636 37.2568C27.4956 37.6808 28.2835 38.3678 28.8304 39.2334C29.0767 39.6401 29.2453 40.0891 29.3275 40.5575C29.3416 40.6379 29.3397 40.7203 29.322 40.8C29.3042 40.8797 29.2709 40.9552 29.224 41.022C29.1771 41.0888 29.1175 41.1457 29.0485 41.1895C28.9796 41.2333 28.9027 41.263 28.8223 41.2771C28.7861 41.2822 28.7495 41.2845 28.7129 41.2839Z" fill="#1A1A1A"/>
</svg>
