<svg width="47" height="47" viewBox="0 0 47 47" fill="none" xmlns="http://www.w3.org/2000/svg">
<g clip-path="url(#clip0_131_146)">
<path d="M9.36131 12.3933C11.3649 12.674 13.2015 13.5038 14.6722 14.793C17.1687 16.9812 20.3802 18.264 23.7154 18.4053C23.9202 18.4139 24.1244 18.4183 24.3288 18.4182C27.5 18.4182 30.6134 17.3794 33.1563 15.4616C34.187 14.6843 35.1011 13.782 35.8876 12.7748C36.7818 13.5799 37.5985 14.4716 38.3176 15.435C38.494 15.6712 38.7643 15.7959 39.0379 15.7959C39.2247 15.7959 39.4131 15.7378 39.5744 15.6175C39.9718 15.3208 40.0535 14.7582 39.7568 14.3607C38.8148 13.0989 37.7202 11.9493 36.5103 10.9399C36.0182 9.48347 35.2968 8.11076 34.3628 6.85614C32.4464 4.28152 29.8012 2.44933 26.7132 1.55756C23.7262 0.695077 20.4796 0.805616 17.5716 1.86907C17.1058 2.03932 16.8663 2.55502 17.0367 3.02079C17.2069 3.48647 17.7225 3.72604 18.1884 3.5557C20.7409 2.62218 23.5915 2.52538 26.215 3.28299C28.9228 4.06493 31.2421 5.67128 32.9223 7.92848C33.1584 8.24573 33.3771 8.5724 33.5819 8.90581C33.3266 8.76017 33.0692 8.61847 32.8078 8.4844C30.1949 7.14465 27.3882 6.41273 24.4545 6.30075L22.4116 4.49963C22.0396 4.1717 21.4722 4.20735 21.1442 4.57937C20.8163 4.95139 20.8519 5.51881 21.2239 5.84674L21.815 6.36774C20.451 6.4922 19.1069 6.75467 17.8006 7.15282C17.3262 7.29739 17.0588 7.79917 17.2034 8.27356C17.3479 8.74795 17.8502 9.01554 18.3241 8.8707C20.0465 8.34576 21.8419 8.0796 23.6607 8.0796C25.24 8.0796 26.7804 8.27662 28.2709 8.66417L26.112 10.4348C25.7285 10.7492 25.6726 11.315 25.9871 11.6985C26.1647 11.915 26.4222 12.0271 26.6819 12.0271C26.8822 12.0271 27.0838 11.9604 27.2509 11.8235L30.2999 9.32292C30.8716 9.54678 31.4351 9.79874 31.9884 10.0825C32.8639 10.5314 33.7028 11.0547 34.4965 11.6408C33.8013 12.5365 32.9899 13.3375 32.0747 14.0278C29.6995 15.8193 26.7573 16.7365 23.7912 16.6111C20.8636 16.4872 18.0455 15.3619 15.8559 13.4426C14.3891 12.1569 12.6182 11.2592 10.6848 10.8134C11.08 9.82945 11.593 8.90222 12.2163 8.04701C12.5083 7.64625 12.4202 7.08449 12.0194 6.79247C11.6187 6.50055 11.0568 6.58855 10.7648 6.9894C9.82726 8.27617 9.10863 9.70481 8.62894 11.2357C8.5501 11.4875 8.58593 11.7612 8.72699 11.9842C8.86806 12.207 9.1 12.3567 9.36131 12.3933Z" fill="#1A1A1A"/>
<path d="M17.95 37.5886C18.5968 34.3325 18.1021 30.9097 16.5567 27.9507C14.99 24.9508 12.4082 22.5699 9.28699 21.2466C8.09846 20.7426 6.86035 20.4 5.59486 20.2225C5.84485 19.0463 6.20871 17.8939 6.68319 16.7899C6.87903 16.3343 6.66837 15.8062 6.21284 15.6103C5.75676 15.4144 5.22903 15.6252 5.03319 16.0808C4.41145 17.5275 3.96318 19.0502 3.69389 20.6028C2.67875 21.757 1.85056 23.0683 1.23097 24.5044C-0.315489 28.0887 -0.366044 32.0683 1.08856 35.7099C2.5507 39.3708 5.35259 42.2393 8.97818 43.7871C10.8002 44.565 12.7299 44.9579 14.6786 44.9579C15.7485 44.9579 16.8244 44.8394 17.8907 44.601C18.1481 44.5434 18.3674 44.3755 18.4899 44.1418C18.6125 43.9082 18.6262 43.6324 18.5272 43.3879C17.7686 41.5121 17.5689 39.5068 17.95 37.5886ZM9.68335 42.1352C6.50027 40.7763 4.04014 38.2578 2.75642 35.0437C1.48025 31.8486 1.52416 28.3584 2.87998 25.2157C3.03667 24.8526 3.21016 24.4999 3.39657 24.1558C3.3981 24.4497 3.40403 24.7435 3.41866 25.0368C3.56485 27.9696 4.33431 30.7662 5.70432 33.3629L5.166 36.0327C5.06794 36.5188 5.38259 36.9924 5.86874 37.0904C5.92863 37.1024 5.98835 37.1082 6.04716 37.1082C6.46579 37.1082 6.84051 36.8138 6.92644 36.3876L7.08215 35.6154C7.8719 36.7343 8.77129 37.7672 9.76919 38.6993C9.94232 38.861 10.1624 38.9411 10.382 38.9411C10.6221 38.9411 10.8616 38.8453 11.0384 38.656C11.377 38.2936 11.3576 37.7254 10.9952 37.3869C9.67949 36.1578 8.55121 34.7359 7.64176 33.1608C6.85209 31.7931 6.25253 30.3605 5.84288 28.876L8.45575 29.8604C8.56001 29.8997 8.66704 29.9183 8.7721 29.9183C9.13515 29.9183 9.477 29.6965 9.6125 29.3367C9.78733 28.8726 9.55297 28.3546 9.08881 28.1798L5.39875 26.7895C5.30671 26.1824 5.24322 25.5684 5.21224 24.9473C5.1633 23.9647 5.19698 22.9765 5.3077 21.9962C6.43104 22.1503 7.5305 22.4524 8.58587 22.8999C11.3248 24.0611 13.5902 26.1501 14.9647 28.782C16.3211 31.3794 16.7557 34.3826 16.1883 37.2385C15.8083 39.1518 15.9162 41.1341 16.497 43.0315C14.1818 43.3627 11.8454 43.0582 9.68335 42.1352Z" fill="#1A1A1A"/>
<path d="M45.9061 28.0211C45.5384 24.9743 44.2412 22.1645 42.1547 19.8957C41.9761 19.7013 41.7192 19.5953 41.4575 19.6062C41.1938 19.6168 40.9483 19.7429 40.7859 19.9509C39.541 21.5457 37.9041 22.7213 36.0523 23.3504C32.9091 24.4182 30.1922 26.5581 28.4024 29.3759C26.5877 32.2327 25.8166 35.6591 26.2312 39.0238C26.3891 40.3051 26.7114 41.5486 27.1904 42.7333C26.0468 43.1049 24.8669 43.3661 23.6735 43.5071C23.181 43.5653 22.829 44.0117 22.8871 44.5042C22.9411 44.9609 23.3289 45.2968 23.7777 45.2968C23.8129 45.2968 23.8485 45.2947 23.8843 45.2905C25.4487 45.1056 26.992 44.7322 28.4716 44.1889C29.4141 44.3776 30.3729 44.4734 31.3392 44.4734C31.9176 44.4734 32.4988 44.4395 33.0805 44.3716C36.9579 43.9187 40.4294 41.9727 42.856 38.8922C45.2954 35.7954 46.3785 31.9346 45.9061 28.0211ZM41.4453 37.7809C39.3163 40.4836 36.2717 42.1907 32.8722 42.5878C32.4793 42.6337 32.0871 42.6598 31.6958 42.6705C31.9496 42.5223 32.2011 42.3702 32.4478 42.2109C34.9146 40.618 36.9518 38.5532 38.5156 36.0685L41.0969 35.1998C41.5669 35.0416 41.8198 34.5323 41.6615 34.0624C41.5034 33.5925 40.9944 33.3393 40.5241 33.4977L39.7774 33.7491C40.3516 32.5057 40.7963 31.2104 41.1046 29.88C41.2167 29.3969 40.9158 28.9145 40.4327 28.8025C39.9497 28.6904 39.4672 28.9913 39.3552 29.4744C38.9485 31.2287 38.2813 32.9167 37.372 34.4917C36.5823 35.8593 35.6415 37.0948 34.5606 38.1919L34.1067 35.4369C34.026 34.9476 33.5654 34.6163 33.0746 34.6968C32.5853 34.7774 32.254 35.2394 32.3346 35.7288L32.9757 39.6196C32.496 40.0029 31.996 40.3648 31.4736 40.7022C30.647 41.236 29.7745 41.7008 28.8701 42.0951C28.4419 41.0452 28.1538 39.942 28.0137 38.8043C27.6499 35.8516 28.3263 32.8453 29.9183 30.339C31.4895 27.8656 33.873 25.9876 36.63 25.0509C38.4769 24.4234 40.1399 23.3388 41.4925 21.8871C42.9374 23.7269 43.8415 25.9024 44.1232 28.2363C44.5379 31.6724 43.5868 35.062 41.4453 37.7809Z" fill="#1A1A1A"/>
<path d="M14.3257 5.54005C14.8216 5.54005 15.2236 5.13803 15.2236 4.6421C15.2236 4.14617 14.8216 3.74414 14.3257 3.74414C13.8298 3.74414 13.4277 4.14617 13.4277 4.6421C13.4277 5.13803 13.8298 5.54005 14.3257 5.54005Z" fill="#1A1A1A"/>
</g>
<defs>
<clipPath id="clip0_131_146">
<rect width="45.981" height="45.981" fill="white" transform="translate(0.0371094 0.148438)"/>
</clipPath>
</defs>
</svg>
