<svg width="46" height="46" viewBox="0 0 46 46" fill="none" xmlns="http://www.w3.org/2000/svg">
<g clip-path="url(#clip0_131_131)">
<path d="M32.5615 34.9868C32.5101 34.3111 31.9731 33.7742 31.2974 33.7227C30.5417 33.7803 29.9758 34.4395 30.0333 35.1952C30.0848 35.8708 30.6217 36.4077 31.2974 36.4593C32.0532 36.4018 32.619 35.7424 32.5615 34.9868Z" fill="#1A1A1A"/>
<path d="M35.9014 33.811C35.8499 33.1353 35.313 32.5984 34.6373 32.5469C33.8815 32.6045 33.3157 33.2638 33.3732 34.0194C33.4246 34.695 33.9615 35.2319 34.6373 35.2835C35.393 35.226 35.9589 34.5666 35.9014 33.811Z" fill="#1A1A1A"/>
<path d="M45.9537 12.9386V12.8751C45.9363 12.831 45.9151 12.7886 45.8902 12.7482L45.8426 12.6847L45.7474 12.5816L45.6919 12.534L45.5888 12.4864H45.5491L28.3203 5.44262C28.1296 5.36548 27.9162 5.36548 27.7254 5.44262L10.5363 12.3675H10.4966L10.3935 12.4151L10.338 12.4626L10.2428 12.5658L10.1952 12.6292C10.1703 12.6696 10.1491 12.712 10.1317 12.7561V12.8196C10.1234 12.8854 10.1234 12.9521 10.1317 13.0179V19.3637H1.03346C0.5954 19.3637 0.240234 19.7189 0.240234 20.1569C0.240234 20.595 0.5954 20.9501 1.03346 20.9501V21.0532H10.0365V23.7661H6.9509C6.51284 23.7661 6.15768 24.1212 6.15768 24.5593C6.15768 24.9974 6.51284 25.3525 6.9509 25.3525H10.0365V28.0653H2.72302C2.28497 28.0653 1.9298 28.4205 1.9298 28.8586C1.9298 29.2966 2.28497 29.6518 2.72302 29.6518H10.0365V32.9675C10.0381 33.2877 10.2322 33.5756 10.5283 33.6972L27.7254 40.8362C27.8114 40.8703 27.9027 40.8891 27.9951 40.8918C28.0875 40.8891 28.1788 40.8703 28.2648 40.8362L45.4619 33.6972C45.758 33.5756 45.9521 33.2877 45.9537 32.9675V13.1369C45.962 13.071 45.962 13.0044 45.9537 12.9386ZM28.0189 7.05286L34.5392 9.66257L19.7059 15.937L12.9239 13.1131L28.0189 7.05286ZM27.2019 38.9246L11.623 32.436V29.6439H14.9149C15.3529 29.6439 15.7081 29.2887 15.7081 28.8506C15.7081 28.4126 15.3529 28.0574 14.9149 28.0574H11.623V25.3446H19.1586C19.5967 25.3446 19.9518 24.9894 19.9518 24.5514C19.9518 24.1133 19.5967 23.7581 19.1586 23.7581H11.623V21.0532H13.2094C13.6475 21.0532 14.0027 20.6981 14.0027 20.26C14.0027 19.822 13.6475 19.4668 13.2094 19.4668H11.623V14.295L17.6832 16.8016L27.2019 20.7677V38.9246ZM28.0268 19.4271L21.7604 16.8016L36.6095 10.5034L43.106 13.121L33.6429 17.0871L28.0268 19.4271ZM28.8121 38.9246V20.7677L33.278 18.9115L44.3831 14.2791L44.4228 32.436L28.8121 38.9246Z" fill="#1A1A1A"/>
</g>
<defs>
<clipPath id="clip0_131_131">
<rect width="45.7197" height="45.7197" fill="white" transform="translate(0.240234 0.279297)"/>
</clipPath>
</defs>
</svg>
